<?xml version="1.0" encoding="UTF-8" standalone="no"?>
<!-- Created with Inkscape (http://www.inkscape.org/) -->

<svg
   width="60.6689"
   height="60.663082"
   viewBox="0 0 16.051979 16.05044"
   version="1.1"
   id="svg918"
   xmlns="http://www.w3.org/2000/svg"
   xmlns:svg="http://www.w3.org/2000/svg">
  <defs
     id="defs915" />
  <g
     id="layer1"
     transform="translate(-133.81743,-99.86461)">
    <path
       id="path7343"
       style="opacity:0.98;fill:#ffffff;fill-opacity:1;stroke:none;stroke-width:0.264147"
       d="m 136.86651,106.78469 h -3.04908 c 0,0 0,0.49323 0,1.10515 0,0.61192 0,1.10512 0,1.10512 h 3.04908 z m 10.01045,2.21027 h 2.99245 c 0,0 0,-0.4932 0,-1.10512 0,-0.61192 0,-1.10515 0,-1.10515 h -2.99245 z m -6.13791,-9.130349 v 3.355199 c 0.39424,0 0.54288,0 1.21688,0 0.54975,0 0.61213,0 0.99185,0 v -3.355199 c 0,-3e-6 -0.49169,0 -1.10361,0 -0.61192,0 -1.10512,-3e-6 -1.10512,0 z m 2.20873,12.638629 c -0.37972,0 -0.4421,0 -0.99185,0 -0.674,0 -0.82264,0 -1.21688,0 v 3.41181 c 0,0 0.4932,0 1.10512,0 0.61192,0 1.10361,0 1.10361,0 z m -1.1042,-10.42987 a 5.8163743,5.8163743 0 0 0 -5.81647,5.8165 5.8163743,5.8163743 0 0 0 5.81647,5.81647 5.8163743,5.8163743 0 0 0 5.8165,-5.81647 5.8163743,5.8163743 0 0 0 -5.8165,-5.8165 z m 0,2.23782 a 3.6072705,3.6072705 0 0 1 3.60777,3.60777 3.6072705,3.6072705 0 0 1 -3.60777,3.6062 3.6072705,3.6072705 0 0 1 -3.60774,-3.6062 3.6072705,3.6072705 0 0 1 3.60774,-3.60777 z" />
  </g>
</svg>
